<svg xmlns="http://www.w3.org/2000/svg" viewBox="0 0 994.10004 223.7491" xmlns:xlink="http://www.w3.org/1999/xlink"><g><path fill="#082029" d="M121.2,0h24.2v145.5H0v-24.2h121.2V0z M169.7,72.7h121.20003v24.2H169.7v24.2h145.50002V48.4H193.89999V24.2 h121.30002V0H169.7V72.7z M339.40002,121.2h145.5V97H363.70001V24.3h121.20001V0h-145.5V121.2z M509.10004,24.2h145.5V0h-145.5 V24.2z M509.10004,48.5h145.5v72.7h-145.5V48.5z M533.40002,97h97V72.8h-97V97z M678.90002,0h145.39996v97H703.10004v48.5 h-24.20001V0z M703.10004,72.7h97V24.2h-97V72.7z M848.60004,0v24.2h145.5V0H848.60004z M848.60004,72.7h145.5V48.5h-145.5V72.7z M848.60004,121.2h145.5V97h-145.5V121.2z"/>
</g><g><path fill="#082029" d="M597.51636,214.04549h-6.57324v-38.39697h6.67773v16.22461c1.25195-2.66064,4.27832-4.95605,8.39941-4.95605 c6.93848,0,11.68555,5.68652,11.68555,13.87744c0,8.24268-4.74707,13.87695-11.68555,13.87695 c-4.01758,0-7.19922-2.19092-8.50391-4.85156V214.04549z M597.4646,201.26375c0,5.16504,2.45117,8.50391,6.67773,8.50391 c4.33008,0,6.83398-3.49561,6.83398-8.97314c0-5.42578-2.50391-8.97314-6.83398-8.97314 c-4.22656,0-6.67773,3.33887-6.67773,8.50342V201.26375z"/><path fill="#082029" d="M620.15698,187.54305h6.78223l7.35645,19.98145h0.10449l6.99023-19.98145h6.62598l-10.33008,26.97217 c-2.50391,6.62549-5.58203,9.18164-11.16406,9.23389c-0.88672,0-2.13867-0.10449-3.07812-0.26074v-5.06055 c0.78223,0.15625,1.2002,0.15625,1.77344,0.15625c2.71289,0,3.86133-0.93896,5.26953-4.59082L620.15698,187.54305z"/></g><g><path fill="#082029" d="M674.34351,214.04549v-51.82666h22.21094c12.12207,0,19.23535,5.66211,19.23535,16.25928 c0,8.05713-5.15332,12.84814-11.0332,14.73535l12.99316,20.83203h-10.52539l-11.83105-19.38037h-11.61426v19.38037H674.34351z M695.46558,187.11629c7.18652,0,10.81543-2.97607,10.81543-8.63818c0-5.66162-3.62891-8.6377-10.81543-8.6377h-11.68652v17.27588 H695.46558z"/><path fill="#082029" d="M741.70288,214.91658c-10.74219,0-18.6543-7.18604-18.6543-19.23535s8.05762-19.38037,18.43652-19.38037 c11.54199,0,17.05859,8.78271,17.05859,18.58203v2.97607h-26.49414c0.58008,6.53271,3.91992,10.23438,9.65332,10.23438 c4.20996,0,6.82324-1.95996,8.05762-5.5166h8.56543C756.72827,210.48885,750.1228,214.91658,741.70288,214.91658z M732.3396,191.83406h17.34863c0-4.57275-2.61328-8.6377-8.20312-8.6377 C736.62183,183.19637,733.3562,186.17244,732.3396,191.83406z"/><path fill="#082029" d="M793.02026,208.16609c-1.81445,3.70166-6.24219,6.75049-11.83105,6.75049 c-9.6543,0-16.25977-7.83936-16.25977-19.30811c0-11.396,6.60547-19.30762,16.25977-19.30762 c5.73438,0,9.94434,3.19385,11.68555,6.89551v-22.57422h9.29102v53.42334h-9.14551V208.16609z M793.09253,194.95515 c0-7.18604-3.41113-11.83154-9.29102-11.83154c-6.02441,0-9.50879,4.93604-9.50879,12.48486 c0,7.62158,3.48438,12.48486,9.50879,12.48486c5.87988,0,9.29102-4.64551,9.29102-11.83154V194.95515z"/><path fill="#082029" d="M848.83862,204.5367h0.14551l7.47656-27.36475h8.92773l-11.25098,36.87354h-9.43555l-7.25879-26.63916 h-0.21777l-7.18652,26.63916h-9.50879l-11.25-36.87354h9.21777l7.47656,27.36475h0.14551l7.04102-27.36475h8.6377 L848.83862,204.5367z"/><path fill="#082029" d="M887.81714,214.91658c-10.8877,0-18.6543-7.33105-18.6543-19.30811 c0-11.90381,7.7666-19.30762,18.6543-19.30762c10.88867,0,18.65527,7.40381,18.65527,19.30762 C906.47241,207.58553,898.70581,214.91658,887.81714,214.91658z M887.81714,208.02107c5.95215,0,9.36426-4.64551,9.36426-12.4126 c0-7.69385-3.41211-12.41211-9.36426-12.41211c-6.02441,0-9.36328,4.71826-9.36328,12.41211 C878.45386,203.37556,881.79272,208.02107,887.81714,208.02107z"/><path fill="#082029" d="M931.51343,214.91658c-10.8877,0-18.6543-7.33105-18.6543-19.30811 c0-11.90381,7.7666-19.30762,18.6543-19.30762c10.88867,0,18.65527,7.40381,18.65527,19.30762 C950.1687,207.58553,942.4021,214.91658,931.51343,214.91658z M931.51343,208.02107c5.95215,0,9.36426-4.64551,9.36426-12.4126 c0-7.69385-3.41211-12.41211-9.36426-12.41211c-6.02441,0-9.36328,4.71826-9.36328,12.41211 C922.15015,203.37556,925.48901,208.02107,931.51343,208.02107z"/><path fill="#082029" d="M984.64526,208.16609c-1.81445,3.70166-6.24219,6.75049-11.83105,6.75049 c-9.6543,0-16.25977-7.83936-16.25977-19.30811c0-11.396,6.60547-19.30762,16.25977-19.30762  c5.73438,0,9.94434,3.19385,11.68555,6.89551v-22.57422h9.29102v53.42334h-9.14551V208.16609z M984.71753,194.95515 c0-7.18604-3.41113-11.83154-9.29102-11.83154c-6.02441,0-9.50879,4.93604-9.50879,12.48486 c0,7.62158,3.48438,12.48486,9.50879,12.48486c5.87988,0,9.29102-4.64551,9.29102-11.83154V194.95515z"/></g></svg>
